<svg xmlns="http://www.w3.org/2000/svg" xmlns:xlink="http://www.w3.org/1999/xlink" version="1.1" x="0px" y="0px" viewBox="0 0 100 100" style="enable-background:new 0 0 100 100;" xml:space="preserve"><path d="M89,76h-6.5166016c0.6584473-0.9436646,0.9926758-2.1001587,0.8886719-3.2836914l-0.59375-6.7412109  c-0.5195312-5.8959961,0.6357422-11.9760742,1.7519531-17.8564453c0.5537109-2.9135742,1.1259766-5.9267578,1.4902344-8.8911133  c0.1220703-0.9868164,0.1835938-2.0014648,0.1835938-3.0151367c0-2.4086304-0.3691406-4.7532349-1.0581055-7.0006104  c1.3847656-0.1588745,2.6611328-0.8375244,3.5708008-1.918335c1.0439453-1.2421875,1.4814453-2.8833008,1.2001953-4.503418  c-0.3476562-2.0068359-1.8486328-3.6850586-3.8242188-4.2753906c-0.5712891-0.1704102-1.1494141-0.2519531-1.7402344-0.2290039  c0.1220703-0.925293,0.0654297-1.8671875-0.171875-2.7856445c-0.7587891-2.9375-3.2851562-5.1303711-6.2871094-5.456543  c-2.8232422-0.3076172-5.4892578,0.996582-6.9794922,3.3071289c-1.7421875-0.9472656-3.9472656-0.9677734-5.6972656-0.0483398  c-1.2773438-1.4194336-3.0488281-2.2568359-4.9873047-2.3295898c-3.8662109-0.1416016-7.1289062,2.8378906-7.3525391,6.6791992  c-2.25,0.8515625-3.8203125,2.9858398-3.9121094,5.4360352c-0.0644531,1.7177734,0.5019531,3.2885742,1.5947266,4.4228516  c0.8665161,0.899292,1.9996338,1.4481812,3.3045654,1.6448364c-0.7519531,2.3868408-1.1392212,4.8666992-1.1043701,7.4025269  c0.015625,1.0703125,0.0996094,2.1396484,0.25,3.1782227c0.3359375,2.3227539,0.7451172,4.6958008,1.140625,6.9912109  c1.2138672,7.0327148,2.4677734,14.3051758,1.8476562,21.3535156l-0.4082031,4.6357422  C55.4857788,73.8999023,55.8200073,75.0563354,56.4784546,76H43.7352905c0.5231934-0.767334,0.772522-1.6582642,0.6748657-2.5742188  l-0.59375-5.5634766c-0.5136719-4.8134766,0.6357422-9.8056641,1.7460938-14.6333008  c0.5546875-2.4106445,1.1279297-4.9033203,1.4951172-7.3618164c0.1240234-0.8295898,0.1865234-1.6826172,0.1865234-2.5351562  c0-1.9317017-0.3372192-3.8146973-0.9758911-5.6231079c1.3527832-0.1760254,2.597168-0.8455811,3.4885864-1.9047241  c1.0439453-1.2421875,1.4814453-2.8833008,1.2001953-4.503418c-0.3476562-2.0068359-1.8486328-3.6850586-3.8242188-4.2753906  c-0.5712891-0.1704102-1.1464844-0.2519531-1.7402344-0.2290039c0.1220703-0.925293,0.0654297-1.8671875-0.171875-2.7856445  c-0.7587891-2.9375-3.2851562-5.1303711-6.2871094-5.456543c-2.8193359-0.3071289-5.4892578,0.996582-6.9794922,3.3076172  c-1.7421875-0.9482422-3.9472656-0.96875-5.6972656-0.0488281c-1.2773438-1.4194336-3.0488281-2.2568359-4.9873047-2.3295898  c-3.8515625-0.1347656-7.1298828,2.8383789-7.3525391,6.6791992c-2.25,0.8515625-3.8203125,2.9858398-3.9121094,5.4360352  c-0.0644531,1.7177734,0.5019531,3.2885742,1.5947266,4.4228516c0.8487549,0.8808594,1.9511108,1.4302368,3.2221069,1.6375732  c-0.6998291,1.925415-1.0560913,3.9224854-1.0219116,5.9625244c0.0146484,0.894043,0.0996094,1.793457,0.2539062,2.6738281  c0.3369141,1.9213867,0.7470703,3.8823242,1.1435547,5.7788086c1.2080078,5.7807617,2.4580078,11.7583008,1.8427734,17.5258789  l-0.4082031,3.8256836C16.5341797,74.3417358,16.7835083,75.232666,17.3067017,76H11c-0.5527344,0-1,0.4477539-1,1v12  c0,0.5522461,0.4472656,1,1,1h78c0.5527344,0,1-0.4477539,1-1V77C90,76.4477539,89.5527344,76,89,76z M50.9628906,23.1630859  c0.0693359-1.8232422,1.359375-3.3847656,3.1396484-3.7978516c0.4716797-0.1098633,0.7978516-0.5424805,0.7724609-1.0268555  c-0.0087891-0.1547852-0.0126953-0.3100586-0.0068359-0.4667969c0.1035156-2.7426758,2.3681641-4.9038086,5.0908203-4.9038086  c0.0644531,0,0.1298828,0.0014648,0.1953125,0.0039062c1.6230469,0.0605469,3.0839844,0.8696289,4.0087891,2.2197266  c0.1542969,0.2250977,0.3935547,0.3774414,0.6621094,0.421875c0.2695312,0.0429688,0.5429688-0.0224609,0.7626953-0.1865234  C67.0683594,14.3183594,69.2236328,14.3852539,70.625,15.5625c0.2431641,0.203125,0.5673828,0.2802734,0.8710938,0.2080078  c0.3066406-0.0712891,0.5615234-0.2836914,0.6884766-0.5717773c0.9423828-2.1489258,3.1552734-3.4228516,5.4921875-3.1669922  c2.1806641,0.2368164,4.015625,1.831543,4.5673828,3.9682617c0.2783203,1.0756836,0.2216797,2.1513672-0.1660156,3.1962891  c-0.1347656,0.3642578-0.046875,0.7739258,0.2255859,1.050293c0.2734375,0.2773438,0.6826172,0.3696289,1.046875,0.2402344  c0.7148438-0.2539062,1.4443359-0.2729492,2.1699219-0.0561523c1.2539062,0.375,2.2060547,1.4355469,2.4257812,2.7016602  c0,0,0,0,0,0.0004883c0.1826172,1.0522461-0.0869141,2.0727539-0.7607422,2.8730469  c-0.6640625,0.7900391-1.6367188,1.2431641-2.6679688,1.2431641h-7.0771484c-0.5527344,0-1,0.4477539-1,1v7.8422852  c0,1.7041016-1.3945312,3.090332-3.109375,3.090332s-3.109375-1.3862305-3.109375-3.090332v-7.8422852c0-0.5522461-0.4472656-1-1-1  H54.9287109c-1.2070312,0-2.2197266-0.3891602-2.9287109-1.1259766  C51.2871094,25.3837891,50.9189453,24.3325195,50.9628906,23.1630859z M56.1220703,46.3876953  c-0.3945312-2.2822266-0.8007812-4.6420898-1.1337891-6.9379883c-0.1376953-0.953125-0.2148438-1.9355469-0.2285156-2.9194336  c-0.0349121-2.5014648,0.3736572-4.9438477,1.175293-7.28125h12.2866211v6.8422852  c0,2.8066406,2.2919922,5.090332,5.109375,5.090332s5.109375-2.2836914,5.109375-5.090332v-6.8422852h4.6177979  c0.7479248,2.2223511,1.145874,4.5571899,1.145874,6.9633789c0,0.9321289-0.0566406,1.8642578-0.1679688,2.7705078  c-0.3574219,2.8999023-0.9228516,5.8803711-1.4707031,8.7626953c-1.1416016,6.0141602-2.3232422,12.2329102-1.7792969,18.4052734  l0.59375,6.7407227c0.0742188,0.8422852-0.1972656,1.6674805-0.7441406,2.2641602  c-0.4794922,0.5239258-1.1152344,0.8125-1.7900391,0.8125H60.1162109c-0.6748047,0-1.3105469-0.2885742-1.7900391-0.8125  c-0.546875-0.5966797-0.8183594-1.421875-0.7441406-2.2636719l0.4082031-4.6352539  C58.6337891,60.9492188,57.3564453,53.5463867,56.1220703,46.3876953z M12.0029297,31.6738281  c0.0693359-1.8232422,1.359375-3.3847656,3.1396484-3.7978516c0.4716797-0.1098633,0.7978516-0.5424805,0.7724609-1.0268555  c-0.0087891-0.1547852-0.0126953-0.3100586-0.0068359-0.4663086c0.1035156-2.7431641,2.3681641-4.9042969,5.0908203-4.9042969  c0.0644531,0,0.1298828,0.0014648,0.1953125,0.0039062c1.6230469,0.0605469,3.0839844,0.8696289,4.0087891,2.2197266  c0.1542969,0.2250977,0.3935547,0.3774414,0.6621094,0.421875c0.2705078,0.0444336,0.5439453-0.0229492,0.7626953-0.1865234  c1.4804688-1.1083984,3.6328125-1.0424805,5.0380859,0.1362305c0.2412109,0.203125,0.5664062,0.2792969,0.8701172,0.2075195  c0.3066406-0.0717773,0.5615234-0.2836914,0.6884766-0.5717773c0.9423828-2.1489258,3.1591797-3.4233398,5.4921875-3.1669922  c2.1806641,0.2368164,4.015625,1.831543,4.5673828,3.9682617c0.2783203,1.0756836,0.2216797,2.1513672-0.1660156,3.1962891  c-0.1347656,0.3642578-0.046875,0.7739258,0.2255859,1.050293c0.2744141,0.2773438,0.6816406,0.3696289,1.046875,0.2402344  c0.7158203-0.2548828,1.4443359-0.2729492,2.1699219-0.0561523c1.2539062,0.375,2.2060547,1.4355469,2.4257812,2.7016602  c0,0,0,0,0,0.0004883c0.1826172,1.0522461-0.0869141,2.0727539-0.7607422,2.8730469  c-0.6640625,0.7900391-1.6367188,1.2431641-2.6679688,1.2431641h-0.7507324c-0.0027466,0.000061-0.0053101-0.000061-0.0080566,0  h-6.3183594c-0.5527344,0-1,0.4477539-1,1v7.8422852c0,1.7041016-1.3945312,3.090332-3.109375,3.090332  s-3.109375-1.3862305-3.109375-3.090332v-7.8422852c0-0.5522461-0.4472656-1-1-1H15.96875  c-1.2070312,0-2.2197266-0.3891602-2.9287109-1.1259766C12.3271484,33.8945312,11.9589844,32.8432617,12.0029297,31.6738281z   M17.1552734,51.6650391c-0.3935547-1.8808594-0.7998047-3.8256836-1.1308594-5.715332  c-0.1367188-0.7768555-0.2119141-1.5708008-0.2246094-2.3613281c-0.0336304-1.9997559,0.3598022-3.9545898,1.1292725-5.8286133  h12.3326416v6.8422852c0,2.8066406,2.2919922,5.090332,5.109375,5.090332s5.109375-2.2836914,5.109375-5.090332v-6.8422852  h4.6640625c0.7169189,1.7807007,1.0996094,3.6487427,1.0996094,5.5722656c0,0.7539062-0.0556641,1.5073242-0.1650391,2.2397461  c-0.3554688,2.3818359-0.9199219,4.8354492-1.4658203,7.2084961c-1.1474609,4.9887695-2.3349609,10.1469727-1.7851562,15.2939453  l0.59375,5.5634766c0.0556641,0.527832-0.1230469,1.0522461-0.5048828,1.4765625  c-0.4882812,0.5429688-1.2285156,0.8540039-2.03125,0.8540039H21.15625c-0.8027344,0-1.5429688-0.3110352-2.03125-0.8540039  c-0.3818359-0.4243164-0.5605469-0.9487305-0.5048828-1.4765625l0.4082031-3.8256836  C19.6767578,63.7314453,18.3945312,57.597168,17.1552734,51.6650391z M88,88H12V78h76V88z"></path></svg>