<?xml version="1.0" encoding="utf-8"?>
<!-- Generator: Adobe Illustrator 24.1.2, SVG Export Plug-In . SVG Version: 6.00 Build 0)  -->
<svg version="1.1" id="Layer_1" xmlns="http://www.w3.org/2000/svg" xmlns:xlink="http://www.w3.org/1999/xlink" x="0px" y="0px"
	 viewBox="0 0 188.2 88" style="enable-background:new 0 0 188.2 88;" xml:space="preserve">
<style type="text/css">
	.st0{fill:none;}
	.st1{fill:#FFFFFF;stroke:#000000;stroke-width:0.1;stroke-miterlimit:10;}
</style>
<polygon class="st0" points="9.3,54.5 4.2,54.5 4.2,54.5 "/>
<g>
	<path class="st1" d="M18.4,50.6L9.7,11.7h5.1l6.1,28.7l5.9-28.7h4.9l-8.6,38.9H18.4z"/>
	<path class="st1" d="M35.8,50.6V11.7h15.1v4h-9.6v12.9h7.8v3.8h-7.8v14.3H51v3.9H35.8z"/>
	<path class="st1" d="M54.2,50.6v-3.9l11.4-31.1H54.9v-3.9h16.5v2.3L59.3,46.7h12.1v3.9H54.2z"/>
	<path class="st1" d="M73.3,50.6l8.3-38.9h5.2l8.3,38.9h-5.1l-1.8-9.8h-7.9l-1.9,9.8H73.3z M81,36.9h6.5l-3.3-17.5L81,36.9z"/>
	<path class="st1" d="M119.2,51.1c-2.2,0-4.1-0.5-5.6-1.4s-2.6-2.3-3.4-4c-0.8-1.7-1.2-3.7-1.3-5.9l4.8-1.3c0.1,1.4,0.3,2.7,0.6,4
		c0.3,1.3,0.9,2.3,1.7,3.1c0.8,0.8,1.8,1.2,3.2,1.2c1.4,0,2.5-0.4,3.2-1.2c0.7-0.8,1.1-1.9,1.1-3.4c0-1.8-0.4-3.2-1.2-4.3
		c-0.8-1.1-1.8-2.2-3-3.2l-6.5-5.8c-1.3-1.1-2.2-2.3-2.8-3.7s-0.9-3-0.9-4.9c0-2.8,0.8-5.1,2.4-6.6c1.6-1.6,3.9-2.3,6.7-2.3
		c1.5,0,2.9,0.2,4.1,0.6c1.2,0.4,2.1,1,2.9,1.8c0.8,0.8,1.4,1.9,1.9,3.1s0.8,2.7,0.9,4.4l-4.6,1.3c-0.1-1.3-0.3-2.5-0.6-3.5
		c-0.3-1.1-0.8-1.9-1.5-2.6c-0.7-0.7-1.8-1-3.1-1s-2.4,0.4-3.1,1.1c-0.8,0.7-1.1,1.8-1.1,3.2c0,1.2,0.2,2.2,0.6,2.9s1,1.6,1.9,2.3
		l6.6,5.8c1.5,1.3,2.8,2.8,3.9,4.6c1.1,1.8,1.7,3.9,1.7,6.3c0,1.9-0.4,3.6-1.2,5c-0.8,1.4-1.9,2.5-3.3,3.2
		C122.6,50.7,121,51.1,119.2,51.1z"/>
	<path class="st1" d="M142.7,51.1c-2.8,0-5-0.6-6.5-1.7s-2.5-2.7-3.1-4.7c-0.5-2-0.8-4.4-0.8-7.1V11.7h5.2v26c0,1.7,0.1,3.2,0.3,4.6
		c0.2,1.4,0.7,2.5,1.5,3.3s1.9,1.2,3.4,1.2c1.5,0,2.7-0.4,3.4-1.2c0.7-0.8,1.2-1.9,1.4-3.3c0.2-1.4,0.3-2.9,0.3-4.6v-26h5.1v25.8
		c0,2.7-0.3,5.1-0.8,7.1c-0.5,2-1.6,3.6-3,4.7C147.7,50.5,145.5,51.1,142.7,51.1z"/>
	<path class="st1" d="M158.8,50.6V11.7h7.8c2.6,0,4.7,0.3,6.4,1c1.7,0.7,3,1.8,3.8,3.3c0.8,1.5,1.2,3.5,1.2,6c0,1.5-0.2,2.9-0.5,4.1
		c-0.3,1.2-0.8,2.3-1.5,3.1c-0.7,0.8-1.6,1.5-2.8,1.8l5.5,19.5h-5.2l-5.1-18.2h-4.2v18.2H158.8z M164.2,28.5h2.1
		c1.5,0,2.8-0.2,3.7-0.6c1-0.4,1.7-1,2.1-2c0.5-0.9,0.7-2.2,0.7-3.9c0-2.3-0.4-3.9-1.3-4.9s-2.5-1.5-4.9-1.5h-2.4L164.2,28.5
		L164.2,28.5z"/>
</g>
<g>
	<g>
		<path class="st1" d="M55.3,75.7V61.1h3.3c0.7,0,1.2,0.1,1.7,0.2c0.5,0.1,0.9,0.4,1.2,0.7c0.3,0.3,0.6,0.7,0.7,1.1
			c0.2,0.5,0.2,1,0.2,1.6c0,0.6-0.1,1.1-0.2,1.6c-0.2,0.4-0.4,0.8-0.7,1s-0.7,0.4-1.2,0.5c0.6,0.1,1.1,0.4,1.4,0.7s0.6,0.7,0.8,1.2
			s0.3,1.1,0.3,1.8c0,0.6-0.1,1.2-0.2,1.7c-0.1,0.5-0.4,1-0.7,1.3c-0.3,0.4-0.7,0.6-1.2,0.8c-0.5,0.2-1,0.3-1.7,0.3H55.3z
			 M57.3,67.2h1.2c0.6,0,1-0.1,1.4-0.2c0.3-0.2,0.6-0.4,0.7-0.8c0.1-0.4,0.2-0.8,0.2-1.4c0-0.7-0.1-1.2-0.3-1.5s-0.5-0.5-1-0.6
			c-0.4-0.1-1-0.1-1.7-0.1h-0.5V67.2z M57.3,74.3h1.4c0.9,0,1.5-0.2,1.8-0.6c0.3-0.4,0.5-1.1,0.5-2.1c0-0.6-0.1-1.1-0.2-1.5
			s-0.4-0.7-0.8-0.9c-0.4-0.2-0.8-0.3-1.4-0.3h-1.2V74.3z"/>
		<path class="st1" d="M64.7,75.7V61.1h2.9c1,0,1.8,0.1,2.4,0.4c0.6,0.3,1.1,0.7,1.4,1.2c0.3,0.6,0.5,1.3,0.5,2.2
			c0,0.6-0.1,1.1-0.2,1.5s-0.3,0.9-0.6,1.2c-0.3,0.3-0.6,0.5-1,0.7l2.1,7.3h-2l-1.9-6.8h-1.6v6.8H64.7z M66.8,67.4h0.8
			c0.6,0,1-0.1,1.4-0.2c0.4-0.1,0.6-0.4,0.8-0.7c0.2-0.3,0.3-0.8,0.3-1.5c0-0.9-0.2-1.5-0.5-1.8s-0.9-0.6-1.9-0.6h-0.9V67.4z"/>
		<path class="st1" d="M74.1,75.7V61.1h5.7v1.5h-3.6v4.8h2.9v1.4h-2.9v5.3h3.7v1.5H74.1z"/>
		<path class="st1" d="M83.3,75.7l-2.4-14.6h1.7l1.6,10.5l2-10.4h1.4l2,10.5l1.5-10.5h1.7l-2.3,14.6h-1.5l-2-10.8l-2.1,10.8H83.3z"
			/>
		<path class="st1" d="M94.6,75.7V61.1h2v14.6H94.6z"/>
		<path class="st1" d="M99,75.7V61.1h1.4l4.1,9.7v-9.7h1.7v14.6h-1.3l-4.2-10v10H99z"/>
		<path class="st1" d="M112,75.9c-0.9,0-1.6-0.2-2.2-0.6c-0.5-0.4-0.9-1-1.2-1.7c-0.2-0.7-0.4-1.6-0.4-2.7V66c0-1.1,0.1-2,0.3-2.7
			c0.2-0.8,0.6-1.3,1.2-1.7c0.6-0.4,1.4-0.6,2.4-0.6c0.9,0,1.6,0.2,2.2,0.5c0.6,0.3,1,0.8,1.2,1.4s0.4,1.4,0.4,2.4v0.5H114v-0.5
			c0-0.6,0-1.2-0.1-1.6c-0.1-0.4-0.3-0.7-0.5-0.9c-0.3-0.2-0.7-0.3-1.2-0.3c-0.6,0-1,0.1-1.3,0.4c-0.3,0.3-0.4,0.7-0.5,1.1
			c-0.1,0.5-0.1,1-0.1,1.6v5.4c0,0.7,0.1,1.3,0.2,1.7s0.3,0.8,0.6,1c0.3,0.2,0.7,0.3,1.2,0.3c0.5,0,0.9-0.1,1.2-0.4s0.5-0.6,0.6-1.1
			c0.1-0.5,0.2-1.1,0.2-1.8v-1h-1.9v-1.4h3.7v7.2h-1.3l-0.2-1.7c-0.2,0.5-0.5,1-0.9,1.3S112.7,75.9,112,75.9z"/>
		<path class="st1" d="M125.9,75.9c-1,0-1.8-0.2-2.4-0.6c-0.6-0.4-1-1-1.2-1.7c-0.2-0.7-0.3-1.5-0.3-2.4v-5.1c0-1,0.1-1.8,0.3-2.6
			c0.2-0.7,0.6-1.3,1.2-1.7c0.6-0.4,1.4-0.6,2.4-0.6c0.9,0,1.6,0.2,2.2,0.5c0.5,0.3,0.9,0.8,1.2,1.4c0.2,0.6,0.4,1.4,0.4,2.2v1.2
			h-1.9v-1c0-0.5,0-1-0.1-1.4c-0.1-0.4-0.2-0.7-0.4-1c-0.2-0.2-0.6-0.3-1.2-0.3c-0.6,0-1,0.1-1.3,0.4s-0.4,0.6-0.5,1
			c-0.1,0.5-0.1,1-0.1,1.6v5.8c0,0.7,0.1,1.3,0.2,1.7s0.3,0.7,0.6,0.9c0.3,0.2,0.6,0.3,1.1,0.3c0.6,0,0.9-0.1,1.2-0.4s0.4-0.6,0.5-1
			c0.1-0.4,0.1-0.9,0.1-1.5v-1.1h1.9v1.1c0,0.9-0.1,1.7-0.3,2.3c-0.2,0.7-0.6,1.2-1.1,1.6C127.6,75.7,126.9,75.9,125.9,75.9z"/>
		<path class="st1" d="M135.3,75.9c-1,0-1.8-0.2-2.4-0.6s-1-0.9-1.3-1.6s-0.4-1.6-0.4-2.5v-5.5c0-1,0.1-1.8,0.4-2.5
			c0.3-0.7,0.7-1.2,1.3-1.6c0.6-0.4,1.4-0.5,2.3-0.5c1,0,1.8,0.2,2.3,0.6c0.6,0.4,1,0.9,1.3,1.6c0.3,0.7,0.4,1.5,0.4,2.5v5.5
			c0,0.9-0.1,1.8-0.4,2.5c-0.3,0.7-0.7,1.3-1.3,1.6S136.2,75.9,135.3,75.9z M135.3,74.3c0.5,0,0.9-0.1,1.2-0.3
			c0.3-0.2,0.5-0.5,0.6-0.9c0.1-0.4,0.1-0.9,0.1-1.4v-6.4c0-0.5,0-1-0.1-1.4c-0.1-0.4-0.3-0.7-0.6-0.9s-0.7-0.3-1.2-0.3
			s-1,0.1-1.2,0.3s-0.5,0.5-0.6,0.9c-0.1,0.4-0.1,0.9-0.1,1.4v6.4c0,0.5,0,1,0.1,1.4c0.1,0.4,0.3,0.7,0.6,0.9
			C134.3,74.2,134.7,74.3,135.3,74.3z"/>
		<path class="st1" d="M141,75.7v-2.1h1.9v2.1H141z"/>
	</g>
</g>
</svg>
